<!-- icon666.com - MILLIONS vector ICONS FREE --><svg enable-background="new 0 0 520 520" viewBox="0 0 520 520" xmlns="http://www.w3.org/2000/svg"><g id="_x35_56_x2C__Audit_x2C__Eye_x2C__Search_x2C__Target"><g><path d="m319.665 291.372 25.68 25.689-28.279 28.29-25.69-25.69c-58.81 44.971-143.27 40.58-197.05-13.199-58.58-58.58-58.58-153.561 0-212.141 58.58-58.57 153.56-58.57 212.13 0 53.789 53.79 58.179 138.25 13.209 197.051z" fill="#fff"></path><path d="m200.395 165.392c19.33 0 35 15.67 35 35s-15.67 35-35 35c-19.329 0-35-15.67-35-35s15.67-35 35-35z" fill="#9bc9ff"></path><circle cx="425.395" cy="140.392" fill="#fff" r="35"></circle><path d="m165.395 390.392c13.801 0 25 11.19 25 25s-11.199 25-25 25c-13.809 0-25-11.19-25-25s11.19-25 25-25z" fill="#fff"></path><path d="m200.395 185.392c8.28 0 15 6.72 15 15 0 8.279-6.72 15-15 15-8.289 0-15-6.721-15-15 0-8.281 6.71-15 15-15z" fill="#fff"></path><path d="m165.395 200.392c0 19.33 15.671 35 35 35v26.09c-42.92 0-82.409-24.93-100-61.09 17.591-36.16 57.08-61.09 100-61.09v26.09c-19.33 0-35 15.669-35 35z" fill="#fff"></path><path d="m235.395 200.392c0-19.33-15.67-35-35-35v-26.09c42.921 0 82.4 24.93 100 61.09-17.6 36.16-57.079 61.09-100 61.09v-26.09c19.33 0 35-15.67 35-35z" fill="#fff"></path><path d="m200.395 261.481c42.921 0 82.4-24.93 100-61.09 0 25.59-9.77 51.18-29.289 70.71-39.051 39.05-102.37 39.05-141.421 0-19.529-19.53-29.3-45.12-29.3-70.71h.01c17.59 36.161 57.08 61.09 100 61.09z" fill="#9bc9ff"></path><path d="m200.395 139.302c-42.92 0-82.409 24.93-100 61.09h-.01c0-25.59 9.771-51.181 29.3-70.71 39.051-39.05 102.37-39.05 141.421 0 19.52 19.529 29.289 45.12 29.289 70.71-17.6-36.161-57.08-61.09-100-61.09z" fill="#9bc9ff"></path><path d="m359.495 302.922 29.18 29.189c-.13.13 3.118-3.118-56.56 56.57l-29.19-29.19c4.638-4.638 49.506-49.506 56.57-56.569z" fill="#fff"></path><path d="m388.675 332.111 69.22 69.21c15.62 15.62 15.62 40.95 0 56.57-15.619 15.62-40.949 15.62-56.569 0l-69.21-69.21c59.677-59.688 56.429-56.44 56.559-56.57zm56.72 98.281c0-8.28-6.72-15-15-15-8.289 0-15 6.72-15 15s6.711 15 15 15c8.28 0 15-6.72 15-15z" fill="#9bc9ff"></path><g fill="#1e81ce"><circle cx="462.895" cy="222.892" r="7.5"></circle><circle cx="412.895" cy="277.892" r="7.5"></circle><circle cx="362.895" cy="62.892" r="7.5"></circle><circle cx="302.895" cy="447.892" r="7.5"></circle><circle cx="72.895" cy="57.892" r="7.5"></circle><circle cx="62.895" cy="377.892" r="7.5"></circle><path d="m200.395 240.392c-22.056 0-40-17.944-40-40 0-22.057 17.944-40 40-40 22.057 0 40 17.943 40 40 0 22.055-17.944 40-40 40zm0-70c-16.542 0-30 13.458-30 30s13.458 30 30 30 30-13.458 30-30-13.459-30-30-30z"></path><path d="m200.395 220.392c-11.027 0-20-8.973-20-20 0-11.028 8.973-20 20-20 11.028 0 20 8.972 20 20 0 11.027-8.972 20-20 20zm0-30c-5.514 0-10 4.485-10 10 0 5.514 4.486 10 10 10 5.515 0 10-4.486 10-10 0-5.515-4.486-10-10-10z"></path><path d="m200.395 266.481c-21.833 0-43.314-6.131-62.123-17.729-18.608-11.476-33.261-27.441-42.373-46.174-.672-1.38-.672-2.993 0-4.374 9.112-18.731 23.765-34.698 42.373-46.174 18.809-11.599 40.29-17.729 62.123-17.729s43.313 6.13 62.12 17.729c18.605 11.475 33.259 27.44 42.376 46.173.672 1.382.672 2.995 0 4.376-9.117 18.732-23.771 34.699-42.376 46.173-18.807 11.599-40.288 17.729-62.12 17.729zm-94.404-66.089c17.474 33.646 55.082 56.09 94.403 56.09 39.313 0 76.921-22.443 94.403-56.09-17.482-33.648-55.091-56.09-94.403-56.09-39.321 0-76.929 22.443-94.403 56.09z"></path><path d="m429.61 474.606c-12.021 0-23.322-4.681-31.821-13.18l-98.4-98.4c-.938-.938-1.465-2.209-1.465-3.535s.527-2.598 1.465-3.535l56.569-56.569c.938-.938 2.21-1.465 3.536-1.465 1.326 0 2.599.527 3.536 1.465l98.398 98.398c8.5 8.5 13.181 19.801 13.181 31.821 0 12.021-4.681 23.321-13.18 31.82-8.497 8.5-19.798 13.18-31.819 13.18zm-119.614-115.115 94.864 94.865c6.61 6.609 15.4 10.25 24.75 10.25s18.139-3.641 24.749-10.25c6.61-6.61 10.251-15.4 10.251-24.75s-3.641-18.14-10.251-24.75l-94.865-94.863z"></path><path d="m200.376 355.387c-41.398 0-80.316-16.12-109.587-45.39-29.276-29.276-45.4-68.201-45.4-109.605s16.123-80.329 45.4-109.605c29.277-29.272 68.202-45.393 109.604-45.393 41.403 0 80.325 16.121 109.597 45.393 26.725 26.724 42.739 62.191 45.095 99.87 2.243 35.869-7.977 71.285-28.834 100.232l22.63 22.638c1.952 1.953 1.952 5.117 0 7.07l-28.279 28.29c-.938.938-2.21 1.465-3.536 1.465s-2.598-.526-3.536-1.465l-22.641-22.641c-26.154 18.821-58.12 29.141-90.513 29.141zm.018-299.993c-38.732 0-75.146 15.081-102.533 42.464-27.388 27.386-42.471 63.8-42.471 102.534 0 38.732 15.083 75.147 42.471 102.535 27.382 27.381 63.789 42.46 102.516 42.46 31.679 0 62.918-10.547 87.962-29.697 1.99-1.524 4.8-1.337 6.572.436l22.154 22.154 21.211-21.219-22.146-22.154c-1.772-1.772-1.958-4.582-.436-6.572 43.902-57.405 38.411-139.293-12.775-190.478-27.382-27.382-63.793-42.463-102.525-42.463z"></path><path d="m200.395 305.389c-28.047 0-54.414-10.921-74.245-30.752-19.839-19.839-30.765-46.206-30.765-74.245s10.926-54.407 30.765-74.246c19.831-19.83 46.198-30.751 74.245-30.751 28.048 0 54.415 10.921 74.246 30.751 19.832 19.843 30.754 46.21 30.754 74.246 0 28.035-10.922 54.402-30.753 74.244-19.832 19.832-46.2 30.753-74.247 30.753zm0-199.994c-25.376 0-49.232 9.881-67.174 27.822-17.95 17.95-27.836 41.807-27.836 67.175s9.886 49.225 27.836 67.175c17.941 17.941 41.798 27.822 67.174 27.822 25.377 0 49.233-9.881 67.175-27.822 17.943-17.953 27.825-41.81 27.825-67.175s-9.882-49.223-27.826-67.176c-17.941-17.941-41.798-27.821-67.174-27.821z"></path><path d="m288.605 293.602c-1.28 0-2.56-.488-3.536-1.465-1.952-1.952-1.952-5.118 0-7.07 46.69-46.69 46.69-122.66 0-169.35-1.952-1.952-1.952-5.118 0-7.071 1.953-1.952 5.118-1.952 7.071 0 50.589 50.589 50.589 132.902 0 183.491-.976.976-2.255 1.465-3.535 1.465z"></path><path d="m425.395 180.392c-22.056 0-40-17.944-40-40 0-22.057 17.944-40 40-40 22.057 0 40 17.943 40 40 0 22.055-17.944 40-40 40zm0-70c-16.542 0-30 13.458-30 30s13.458 30 30 30 30-13.458 30-30-13.459-30-30-30z"></path><path d="m165.395 445.392c-16.542 0-30-13.458-30-30s13.458-30 30-30 30 13.458 30 30-13.459 30-30 30zm0-50c-11.027 0-20 8.972-20 20s8.973 20 20 20c11.028 0 20-8.972 20-20s-8.972-20-20-20z"></path><path d="m430.395 450.392c-11.027 0-20-8.972-20-20s8.973-20 20-20c11.028 0 20 8.972 20 20s-8.972 20-20 20zm0-30c-5.514 0-10 4.486-10 10s4.486 10 10 10c5.515 0 10-4.486 10-10s-4.486-10-10-10z"></path><path d="m332.895 392.892c-1.279 0-2.559-.488-3.535-1.465-1.953-1.952-1.953-5.118 0-7.07l55.78-55.78c1.953-1.953 5.118-1.953 7.071 0 1.952 1.952 1.952 5.118 0 7.07l-55.78 55.78c-.977.976-2.256 1.465-3.536 1.465z"></path><path d="m200.395 170.392c-2.761 0-5-2.239-5-5v-35c0-2.762 2.239-5 5-5 2.762 0 5 2.238 5 5v35c0 2.76-2.239 5-5 5z"></path><path d="m200.395 275.392c-2.761 0-5-2.238-5-5v-35c0-2.762 2.239-5 5-5 2.762 0 5 2.238 5 5v35c0 2.761-2.239 5-5 5z"></path><path d="m270.395 205.392h-35c-2.761 0-5-2.239-5-5 0-2.762 2.239-5 5-5h35c2.762 0 5 2.238 5 5 0 2.76-2.239 5-5 5z"></path><path d="m165.395 205.392h-35c-2.761 0-5-2.239-5-5 0-2.762 2.239-5 5-5h35c2.762 0 5 2.238 5 5 0 2.76-2.239 5-5 5z"></path></g></g></g></svg>